<svg width="34" height="34" viewBox="0 0 34 34" fill="none" xmlns="http://www.w3.org/2000/svg">
<path d="M16.9999 0.333252C7.79992 0.333252 0.333252 7.79992 0.333252 16.9999C0.333252 26.1999 7.79992 33.6666 16.9999 33.6666C26.1999 33.6666 33.6666 26.1999 33.6666 16.9999C33.6666 7.79992 26.1999 0.333252 16.9999 0.333252ZM16.9999 3.66659C23.7999 3.66659 29.4166 8.74992 30.2333 15.3333H23.4666C22.7166 12.4499 20.0999 10.3333 16.9999 10.3333C13.8999 10.3333 11.2833 12.4499 10.5499 15.3333H3.76659C4.58325 8.74992 10.1999 3.66659 16.9999 3.66659ZM20.3333 16.9999C20.3333 18.8333 18.8333 20.3333 16.9999 20.3333C15.1666 20.3333 13.6666 18.8333 13.6666 16.9999C13.6666 15.1666 15.1666 13.6666 16.9999 13.6666C18.8333 13.6666 20.3333 15.1666 20.3333 16.9999ZM16.9999 30.3333C10.1999 30.3333 4.58325 25.2499 3.76659 18.6666H10.5333C11.2666 21.5499 13.8833 23.6666 16.9833 23.6666C20.0833 23.6666 22.6999 21.5499 23.4333 18.6666H30.1999C29.4166 25.2499 23.7999 30.3333 16.9999 30.3333Z" fill="#181D27"/>
</svg>
