<svg width="16" height="18" viewBox="0 0 16 18" fill="none" xmlns="http://www.w3.org/2000/svg">
<path d="M2.00016 16H14.0002L12.5752 6H3.42517L2.00016 16ZM8.00016 4C8.2835 4 8.52116 3.904 8.71317 3.712C8.90517 3.52 9.00083 3.28267 9.00016 3C8.9995 2.71733 8.9035 2.48 8.71216 2.288C8.52083 2.096 8.2835 2 8.00016 2C7.71683 2 7.4795 2.096 7.28817 2.288C7.09683 2.48 7.00083 2.71733 7.00016 3C6.9995 3.28267 7.0955 3.52033 7.28817 3.713C7.48083 3.90567 7.71816 4.00133 8.00016 4ZM10.8252 4H12.5752C13.0752 4 13.5085 4.16667 13.8752 4.5C14.2418 4.83333 14.4668 5.24167 14.5502 5.725L15.9752 15.725C16.0585 16.325 15.9045 16.8543 15.5132 17.313C15.1218 17.7717 14.6175 18.0007 14.0002 18H2.00016C1.3835 18 0.879165 17.771 0.487165 17.313C0.0951649 16.855 -0.058835 16.3257 0.025165 15.725L1.45016 5.725C1.5335 5.24167 1.7585 4.83333 2.12516 4.5C2.49183 4.16667 2.92517 4 3.42517 4H5.17517C5.12516 3.83333 5.0835 3.671 5.05017 3.513C5.01683 3.355 5.00016 3.184 5.00016 3C5.00016 2.16667 5.29183 1.45833 5.87516 0.875C6.4585 0.291667 7.16683 0 8.00016 0C8.8335 0 9.54183 0.291667 10.1252 0.875C10.7085 1.45833 11.0002 2.16667 11.0002 3C11.0002 3.18333 10.9835 3.35433 10.9502 3.513C10.9168 3.67167 10.8752 3.834 10.8252 4Z" fill="#181D27"/>
</svg>
